HIERARCHY
ROOT Hips
{
  OFFSET 44.1156 95.9833 19.2854
  CHANNELS 6 Xposition Yposition Zposition Zrotation Xrotation Yrotation
  JOINT spine
  {
    OFFSET 0 8.13249 0.467659
    CHANNELS 3 Zrotation Xrotation Yrotation
    JOINT spine1
    {
      OFFSET 0 10.3498 0
      CHANNELS 3 Zrotation Xrotation Yrotation
      JOINT spine2
      {
        OFFSET 0 9.91699 0
        CHANNELS 3 Zrotation Xrotation Yrotation
        JOINT Neck
        {
          OFFSET 0 25.461 1.2139
          CHANNELS 3 Zrotation Xrotation Yrotation
          JOINT Head
          {
            OFFSET 0 7.69245 0
            CHANNELS 3 Zrotation Xrotation Yrotation
            End Site
            {
              OFFSET 0 18.62 -6.14063
            }
          }
        }
        JOINT RightShoulder
        {
          OFFSET -4.17575 10.7096 -0.581445
          CHANNELS 3 Zrotation Xrotation Yrotation
          JOINT RightArm
          {
            OFFSET 0 14.0466 0
            CHANNELS 3 Zrotation Xrotation Yrotation
            JOINT RightArmRoll
            {
              OFFSET 0 7.09098 0
              CHANNELS 3 Zrotation Xrotation Yrotation
              JOINT RightForeArm
              {
                OFFSET 0 20.6535 0
                CHANNELS 3 Zrotation Xrotation Yrotation
                JOINT RightForeArmRoll
                {
                  OFFSET 0 7.95718 0
                  CHANNELS 3 Zrotation Xrotation Yrotation
                  JOINT RightHand
                  {
                    OFFSET 0 15.9683 0
                    CHANNELS 3 Zrotation Xrotation Yrotation
                    End Site
                    {
                      OFFSET 0 0 0
                    }
                  }
                }
              }
            }
          }
        }
        JOINT LeftShoulder
        {
          OFFSET 4.17575 10.7096 -0.581445
          CHANNELS 3 Zrotation Xrotation Yrotation
          JOINT LeftArm
          {
            OFFSET 0 14.0466 0
            CHANNELS 3 Zrotation Xrotation Yrotation
            JOINT LeftArmRoll
            {
              OFFSET 0 7.09098 0
              CHANNELS 3 Zrotation Xrotation Yrotation
              JOINT LeftForeArm
              {
                OFFSET 0 20.6535 0
                CHANNELS 3 Zrotation Xrotation Yrotation
                JOINT LeftForeArmRoll
                {
                  OFFSET 0 7.95718 0
                  CHANNELS 3 Zrotation Xrotation Yrotation
                  JOINT LeftHand
                  {
                    OFFSET 0 15.9683 0
                    CHANNELS 3 Zrotation Xrotation Yrotation
                    End Site
                    {
                      OFFSET 0 0 0
                    }
                  }
                }
              }
            }
          }
        }
      }
    }
  }
  JOINT RightUpLeg
  {
    OFFSET -7.20834 -1.32182 -1.10884
    CHANNELS 3 Zrotation Xrotation Yrotation
    JOINT RightUpLegRoll
    {
      OFFSET 0 18.7238 0
      CHANNELS 3 Zrotation Xrotation Yrotation
      JOINT RightLeg
      {
        OFFSET 0 -23.1866 0
        CHANNELS 3 Zrotation Xrotation Yrotation
        JOINT RightLegRoll
        {
          OFFSET 0 23.2624 0
          CHANNELS 3 Zrotation Xrotation Yrotation
          JOINT RightFoot
          {
            OFFSET 0 19.3621 0
            CHANNELS 3 Zrotation Xrotation Yrotation
            JOINT RightToeBase
            {
              OFFSET 0 16.1857 0
              CHANNELS 3 Zrotation Xrotation Yrotation
              End Site
              {
                OFFSET 0.00686052 7.83863 -0.903522
              }
            }
          }
        }
      }
    }
  }
  JOINT LeftUpLeg
  {
    OFFSET 7.20834 -1.32182 -1.10884
    CHANNELS 3 Zrotation Xrotation Yrotation
    JOINT LeftUpLegRoll
    {
      OFFSET 0 18.7239 0
      CHANNELS 3 Zrotation Xrotation Yrotation
      JOINT LeftLeg
      {
        OFFSET 0 23.1865 0
        CHANNELS 3 Zrotation Xrotation Yrotation
        JOINT LeftLegRoll
        {
          OFFSET 0 23.4775 0
          CHANNELS 3 Zrotation Xrotation Yrotation
          JOINT LeftFoot
          {
            OFFSET 0 19.147 0
            CHANNELS 3 Zrotation Xrotation Yrotation
            JOINT LeftToeBase
            {
              OFFSET 0 16.1857 0
              CHANNELS 3 Zrotation Xrotation Yrotation
              End Site
              {
                OFFSET -0.0307459 7.83862 -0.903522
              }
            }
          }
        }
      }
    }
  }
}
MOTION
Frames: 7
Frame Time: 0.00208333
51.195 96.0861 12.8574 0.505632 -3.88747 0.502098 0.47473 -1.12237 0.0416847 0.934795 1.75809 0.0247915 0.935313 3.40304 0.0092092 -5.95049 10.5768 -2.51568 3.87526 -1.17803 -3.57512 58.2019 -9.2761 -5.75793 111.558 20.0051 19.7175 -2.5767e-006 -4.83063e-006 -7.71224e-006 5.9429 0.0483383 -0.597737 1.12062e-006 3.08896e-006 -3.00727 8.02942 -4.95142 0.697653 -62.3934 -9.59015 5.99431 -109.027 19.1236 -7.70938 5.09839e-006 2.38078e-006 7.14033e-006 -8.96237 0.0703128 1.22846 1.76213e-006 -2.97358e-006 3.0497 -8.02905 -4.95144 -0.697679 171.943 1.9356 4.55522 180 7.01568e-015 179.018 178.209 12.9891 179.653 -4.58812e-006 -4.01625e-006 0.11731 -18.3055 69.8118 21.0818 8.13043 25.2415 -3.48234 -173.592 -0.151105 -1.46527 4.54188e-006 -4.6773e-006 -1.03894 -0.986185 -11.9771 0.418935 -1.60306e-007 3.14476e-006 -0.208714 20.0745 71.2086 -22.5087 -8.1374 25.2462 3.48686 
51.188 96.0841 12.855 0.503188 -3.88936 0.504223 0.474457 -1.12112 0.041669 0.936182 1.7607 0.0255335 0.936696 3.40564 0.00991176 -5.95571 10.5714 -2.51447 3.88301 -1.17532 -3.57417 58.1986 -9.28048 -5.76068 111.562 20.0057 19.7107 -2.5767e-006 -4.83063e-006 -7.71224e-006 5.94612 0.0480206 -0.596907 1.12062e-006 3.08896e-006 -3.00727 8.02942 -4.95142 0.697653 -62.3935 -9.58064 5.98875 -109.027 19.1291 -7.69484 5.09839e-006 2.38078e-006 7.14033e-006 -8.96757 0.0703118 1.22616 1.76213e-006 -2.97358e-006 3.04971 -8.02905 -4.95144 -0.697679 171.949 1.93983 4.55244 180 7.01568e-015 179.018 178.21 12.9991 179.653 -4.58812e-006 -4.01625e-006 0.117283 -18.3095 69.8162 21.0861 8.13043 25.2415 -3.48234 -173.585 -0.144592 -1.46875 4.54188e-006 -4.6773e-006 -1.03887 -0.984686 -11.9884 0.418978 -1.60306e-007 3.14476e-006 -0.208102 20.073 71.2108 -22.5119 -8.1374 25.2462 3.48686 
51.1804 96.0843 12.8609 0.500787 -3.89118 0.506236 0.474181 -1.11987 0.0416533 0.937605 1.76331 0.0262938 0.938115 3.40825 0.010631 -5.96177 10.5657 -2.51319 3.89165 -1.17217 -3.57325 58.1949 -9.28484 -5.76341 111.567 20.0064 19.7044 -2.5767e-006 -4.83063e-006 -7.71224e-006 5.94887 0.047548 -0.59608 1.12062e-006 3.08896e-006 -3.00727 8.02942 -4.95142 0.697653 -62.3938 -9.5711 5.98317 -109.027 19.1345 -7.68035 5.09839e-006 2.38078e-006 7.14033e-006 -8.97278 0.0703107 1.22388 1.76213e-006 -2.97358e-006 3.04971 -8.02905 -4.95144 -0.697679 171.955 1.94424 4.54972 180 7.01568e-015 179.018 178.211 13.0092 179.653 -4.58812e-006 -4.01625e-006 0.117243 -18.3134 69.8206 21.0903 8.13043 25.2415 -3.48234 -173.577 -0.137946 -1.47216 4.54188e-006 -4.6773e-006 -1.03882 -0.983186 -11.9999 0.418985 -1.60306e-007 3.14476e-006 -0.207469 20.0717 71.213 -22.5152 -8.1374 25.2462 3.48686 
51.1791 96.0836 12.8582 0.498416 -3.89294 0.50817 0.473903 -1.11862 0.0416376 0.939053 1.76592 0.0270669 0.93956 3.41086 0.011362 -5.96842 10.5598 -2.51185 3.90092 -1.16869 -3.57235 58.1909 -9.28919 -5.76613 111.573 20.007 19.6985 -2.5767e-006 -4.83063e-006 -7.71224e-006 5.95128 0.0469671 -0.595253 1.12062e-006 3.08896e-006 -3.00727 8.02942 -4.95142 0.697653 -62.3944 -9.56153 5.97759 -109.027 19.14 -7.66588 5.09839e-006 2.38078e-006 7.14033e-006 -8.978 0.0703097 1.2216 1.76213e-006 -2.97358e-006 3.04971 -8.02905 -4.95144 -0.697679 171.962 1.94877 4.54703 180 7.01568e-015 179.018 178.212 13.0193 179.653 -4.58812e-006 -4.01625e-006 0.117194 -18.3174 69.825 21.0945 8.13043 25.2415 -3.48234 -173.57 -0.131206 -1.47551 4.54188e-006 -4.6773e-006 -1.03879 -0.981685 -12.0115 0.418967 -1.60306e-007 3.14476e-006 -0.206822 20.0705 71.2152 -22.5186 -8.1374 25.2462 3.48686 
51.1754 96.0799 12.8474 0.496062 -3.89468 0.510059 0.473623 -1.11737 0.0416218 0.940516 1.76853 0.0278472 0.941018 3.41347 0.0120996 -5.97541 10.5537 -2.51047 3.91054 -1.16504 -3.57146 58.1867 -9.29353 -5.76885 111.578 20.0077 19.6927 -2.5767e-006 -4.83063e-006 -7.71224e-006 5.9535 0.0463242 -0.594428 1.12062e-006 3.08896e-006 -3.00727 8.02942 -4.95142 0.697653 -62.395 -9.55195 5.972 -109.027 19.1455 -7.65143 5.09839e-006 2.38078e-006 7.14033e-006 -8.98322 0.0703087 1.21933 1.76213e-006 -2.97358e-006 3.04971 -8.02905 -4.95144 -0.697679 171.968 1.95337 4.54436 180 7.01568e-015 179.018 178.213 13.0295 179.653 -4.58812e-006 -4.01625e-006 0.117139 -18.3213 69.8293 21.0988 8.13043 25.2415 -3.48234 -173.563 -0.124412 -1.47883 4.54188e-006 -4.6773e-006 -1.03876 -0.980183 -12.0231 0.418935 -1.60306e-007 3.14476e-006 -0.206166 20.0694 71.2175 -22.5221 -8.1374 25.2462 3.48686 
51.1701 96.0796 12.8483 0.493712 -3.89641 0.511936 0.473344 -1.11612 0.041606 0.941982 1.77114 0.0286294 0.94248 3.41608 0.0128389 -5.98248 10.5475 -2.50909 3.92026 -1.16134 -3.57056 58.1825 -9.29786 -5.77156 111.584 20.0084 19.6871 -2.5767e-006 -4.83063e-006 -7.71224e-006 5.95568 0.0456658 -0.593603 1.12062e-006 3.08896e-006 -3.00727 8.02942 -4.95142 0.697653 -62.3956 -9.54237 5.96641 -109.028 19.151 -7.63698 5.09839e-006 2.38078e-006 7.14033e-006 -8.98844 0.0703077 1.21706 1.76213e-006 -2.97358e-006 3.04972 -8.02905 -4.95144 -0.697679 171.974 1.95798 4.5417 180 7.01568e-015 179.018 178.215 13.0396 179.653 -4.58812e-006 -4.01625e-006 0.117083 -18.3252 69.8336 21.103 8.13043 25.2415 -3.48234 -173.556 -0.117605 -1.48215 4.54188e-006 -4.6773e-006 -1.03874 -0.978681 -12.0347 0.418899 -1.60306e-007 3.14476e-006 -0.205509 20.0683 71.2198 -22.5256 -8.1374 25.2462 3.48686 
51.1627 96.0782 12.8498 0.491354 -3.89815 0.513836 0.473065 -1.11488 0.0415903 0.943441 1.77375 0.0294079 0.943935 3.41869 0.0135749 -5.98939 10.5415 -2.50773 3.9298 -1.15772 -3.56967 58.1783 -9.3022 -5.77428 111.59 20.0091 19.6813 -2.5767e-006 -4.83063e-006 -7.71224e-006 5.95794 0.0450384 -0.592777 1.12062e-006 3.08896e-006 -3.00727 8.02942 -4.95142 0.697653 -62.3962 -9.5328 5.96082 -109.028 19.1565 -7.62252 5.09839e-006 2.38078e-006 7.14033e-006 -8.99366 0.0703067 1.21479 1.76213e-006 -2.97358e-006 3.04972 -8.02905 -4.95144 -0.697679 171.981 1.96257 4.53902 180 7.01568e-015 179.018 178.216 13.0498 179.653 -4.58812e-006 -4.01625e-006 0.11703 -18.3291 69.838 21.1072 8.13043 25.2415 -3.48234 -173.549 -0.110825 -1.48548 4.54188e-006 -4.6773e-006 -1.03871 -0.977179 -12.0463 0.418871 -1.60306e-007 3.14476e-006 -0.204855 20.0672 71.222 -22.5291 -8.1374 25.2462 3.48686 
